<?xml version="1.0" standalone="no"?><!DOCTYPE svg PUBLIC "-//W3C//DTD SVG 1.1//EN" "http://www.w3.org/Graphics/SVG/1.1/DTD/svg11.dtd"><svg t="1686822469584" class="icon" viewBox="0 0 1024 1024" version="1.1" xmlns="http://www.w3.org/2000/svg" p-id="2599" xmlns:xlink="http://www.w3.org/1999/xlink" width="200" height="200"><path d="M269.76 555.84c0 136.8 70.56 252.16 188.8 282.56l62.88-4.16 64.96 4.16c117.6 0 244.16-116.32 244.16-282.72C830.4 407.52 742.24 304 616 304l-93.76 3.84L432 304c-102.88 28.64-162.24 130.88-162.24 251.84z" fill="#FF5B6C" p-id="2600"></path><path d="M331.52 579.84a8 8 0 0 1-8-8v-24a8.16 8.16 0 0 1 8.48-7.52 8 8 0 0 1 7.52 8.48v23.04a8 8 0 0 1-8 8zM342.88 491.68h-2.08a8 8 0 0 1-5.6-9.76 272 272 0 0 1 38.24-84 8 8 0 0 1 13.12 9.12 256 256 0 0 0-36 79.04 8 8 0 0 1-7.68 5.6z" fill="#FFFFFF" p-id="2601"></path><path d="M616 304l-38.24 1.6c112 13.12 188.8 112 188.8 250.56 0 154.08-86.08 264.8-212.96 280.48l32.8 2.08c112 0 244.16-116.32 244.16-282.72C830.4 407.52 742.24 304 616 304z" fill="#EA4E65" p-id="2602"></path><path d="M513.92 371.68a8 8 0 0 1-8-8 152.16 152.16 0 0 1 152-152 8 8 0 0 1 0 16 136.16 136.16 0 0 0-136 136 8 8 0 0 1-8 8z" fill="#7B365D" p-id="2603"></path><path d="M502.72 261.6c-33.6 0-89.12-7.68-123.2-53.12a8 8 0 0 1 12.8-9.6c37.12 49.44 106.08 48 128.8 45.76-5.92-51.84-25.12-90.56-54.72-115.36a141.28 141.28 0 0 0-96-29.6 8 8 0 0 1-1.76-16 156 156 0 0 1 107.84 33.12c35.2 28.8 56 73.92 61.44 134.08v7.36l-7.36 1.28a187.36 187.36 0 0 1-27.84 2.08z" fill="#7B365D" p-id="2604"></path><path d="M521.12 244.8c-5.92-52-25.12-90.72-54.72-115.52a129.28 129.28 0 0 0-43.2-23.04c-6.24 48-1.12 116.48 74.24 139.2a203.68 203.68 0 0 0 23.68-0.64z" fill="#A5DC69" p-id="2605"></path><path d="M522.88 401.12a191.04 191.04 0 0 1-82.88-19.36 8 8 0 0 1 8-13.76s74.24 38.4 144 0a8 8 0 0 1 7.68 14.08 158.24 158.24 0 0 1-76.8 19.04z" fill="#7B365D" p-id="2606"></path><path d="M424.64 304l39.36 1.6c-115.36 13.12-193.92 112-193.92 250.56 0 154.08 88.48 264.8 218.72 280.48l-33.76 2.08c-115.36 0-250.72-116.32-250.72-282.72C204.48 407.52 295.04 304 424.64 304z" fill="#F4F8F7" p-id="2607"></path><path d="M206.88 536.64a8 8 0 0 1-7.36-8.64 341.92 341.92 0 0 1 4.96-36.96 8 8 0 1 1 16 3.04 326.08 326.08 0 0 0-4.64 35.2 8 8 0 0 1-8.96 7.36z" fill="#7B365D" p-id="2608"></path><path d="M583.52 851.36L541.44 848a330.24 330.24 0 0 0-43.04 0l-41.6 2.72c-112 0-249.44-119.04-258.24-272a8 8 0 0 1 7.52-8.48 8.16 8.16 0 0 1 8.48 7.52c8.32 144.96 136.8 257.28 241.76 257.28l40.96-3.04a350.88 350.88 0 0 1 45.12 0l41.6 2.72c109.28 0 241.92-124.48 241.92-279.04 0-146.56-87.52-248.96-212.8-248.96l-92.96 3.84-93.92-3.84a199.68 199.68 0 0 0-189.76 129.76 8 8 0 1 1-14.72-6.24 215.2 215.2 0 0 1 204.96-139.68l93.6 3.84 92.64-3.84c135.04 0 229.12 108.96 229.12 264.96-0.16 164.48-141.44 295.84-258.56 295.84z" fill="#7B365D" p-id="2609"></path></svg>