<?xml version="1.0" standalone="no"?><!DOCTYPE svg PUBLIC "-//W3C//DTD SVG 1.1//EN" "http://www.w3.org/Graphics/SVG/1.1/DTD/svg11.dtd"><svg t="1686822578796" class="icon" viewBox="0 0 1024 1024" version="1.1" xmlns="http://www.w3.org/2000/svg" p-id="8177" xmlns:xlink="http://www.w3.org/1999/xlink" width="200" height="200"><path d="M329.2 541.4m-175.6 0a175.6 175.6 0 1 0 351.2 0 175.6 175.6 0 1 0-351.2 0Z" fill="#FFFFFF" p-id="8178"></path><path d="M504.7 544.5c0 97-56.4 146.5-103.3 152.2C305.1 708.3 237 644.9 237 547.9s66-181 160.6-159.4c95.9 22 107.1 59 107.1 156z" fill="#9F58BC" p-id="8179"></path><path d="M329.2 738.1c-107.9 0-195.6-87.7-195.6-195.6s87.7-195.6 195.6-195.6 195.6 87.7 195.6 195.6-87.7 195.6-195.6 195.6z m0-351.2c-85.8 0-155.6 69.8-155.6 155.6s69.8 155.6 155.6 155.6 155.6-69.8 155.6-155.6S415 386.9 329.2 386.9z" fill="#424649" p-id="8180"></path><path d="M373.9 381.3c-5 0-10-1.9-13.9-5.6-7.9-7.7-8.1-20.4-0.4-28.3L489 213.9V36c0-11 9-20 20-20s20 9 20 20v194L388.2 375.2c-3.9 4.1-9.1 6.1-14.3 6.1z" fill="#424649" p-id="8181"></path><path d="M609.3 338.5c-4.8 0-9.6-1.7-13.4-5.1l-107.3-96.5c-8.2-7.4-8.9-20-1.5-28.2s20-8.9 28.2-1.5l107.3 96.5c8.2 7.4 8.9 20 1.5 28.2-3.9 4.4-9.3 6.6-14.8 6.6zM508.9 56.2l-93.4-13.7C404.6 41 397 30.8 398.6 19.9c1.6-11 11.8-18.5 22.7-16.9L509 15.8 618.8 0.6c10.9-1.5 21 6.1 22.6 17.1 1.5 10.9-6.1 21-17.1 22.6L508.9 56.2z" fill="#424649" p-id="8182"></path><path d="M676.8 496m-194.7 0a194.7 194.7 0 1 0 389.4 0 194.7 194.7 0 1 0-389.4 0Z" fill="#FFFFFF" p-id="8183"></path><path d="M871.1 511.7c0 113.1-87.2 176.5-127.7 177.8-107.5 3.5-178.9-64.7-178.9-177.8S653.1 288 759.1 307c29.3 5.2 112 91.7 112 204.7z" fill="#9F58BC" p-id="8184"></path><path d="M677.4 711.5c-57.4 0-111.3-22.3-151.8-62.9-40.6-40.6-62.9-94.5-62.9-151.8S485 385.5 525.6 345c40.6-40.6 94.5-62.9 151.8-62.9s111.3 22.3 151.8 62.9c40.6 40.6 62.9 94.5 62.9 151.8S869.8 608 829.3 648.6c-40.6 40.5-94.5 62.9-151.9 62.9z m0-389.5c-96.3 0-174.7 78.4-174.7 174.7s78.4 174.7 174.7 174.7S852.1 593 852.1 496.7 773.8 322 677.4 322z" fill="#424649" p-id="8185"></path><path d="M482.9 806.4m-194.7 0a194.7 194.7 0 1 0 389.4 0 194.7 194.7 0 1 0-389.4 0Z" fill="#FFFFFF" p-id="8186"></path><path d="M677.5 813.1c1.9 88.3-80.8 167.2-116.5 169.1-107.4 5.7-189.5-68.2-189.5-175.7s75-186.3 182-175.6c56.4 5.6 121.7 74.7 124 182.2z" fill="#9F58BC" p-id="8187"></path><path d="M482.9 1022.2c-57.4 0-111.3-22.3-151.8-62.9-40.6-40.6-62.9-94.5-62.9-151.8s22.3-111.3 62.9-151.8c40.6-40.6 94.5-62.9 151.8-62.9s111.3 22.3 151.8 62.9c40.6 40.6 62.9 94.5 62.9 151.8s-22.3 111.3-62.9 151.8c-40.5 40.6-94.4 62.9-151.8 62.9z m0-389.4c-96.3 0-174.7 78.4-174.7 174.7s78.4 174.7 174.7 174.7c96.3 0 174.7-78.4 174.7-174.7s-78.3-174.7-174.7-174.7z" fill="#424649" p-id="8188"></path></svg>