<?xml version="1.0" standalone="no"?><!DOCTYPE svg PUBLIC "-//W3C//DTD SVG 1.1//EN" "http://www.w3.org/Graphics/SVG/1.1/DTD/svg11.dtd"><svg t="1686822569330" class="icon" viewBox="0 0 1024 1024" version="1.1" xmlns="http://www.w3.org/2000/svg" p-id="6404" xmlns:xlink="http://www.w3.org/1999/xlink" width="200" height="200"><path d="M5.1 831.7h253.5c2.8 0 5.1-2.3 5.1-5.1s-2.3-5.1-5.1-5.1H5.1c-2.8 0-5.1 2.3-5.1 5.1 0 2.9 2.3 5.1 5.1 5.1z m314.3 0h55.8c2.8 0 5.1-2.3 5.1-5.1s-2.3-5.1-5.1-5.1h-55.8c-2.8 0-5.1 2.3-5.1 5.1 0.1 2.9 2.3 5.1 5.1 5.1z m106.5 0h253.5c2.8 0 5.1-2.3 5.1-5.1s-2.3-5.1-5.1-5.1H425.9c-2.8 0-5.1 2.3-5.1 5.1 0 2.9 2.3 5.1 5.1 5.1z m314.4 0H796c2.8 0 5.1-2.3 5.1-5.1s-2.3-5.1-5.1-5.1h-55.8c-2.8 0-5.1 2.3-5.1 5.1 0.1 2.9 2.4 5.1 5.2 5.1z m106.4 0h172.4c2.8 0 5.1-2.3 5.1-5.1s-2.3-5.1-5.1-5.1H846.7c-2.8 0-5.1 2.3-5.1 5.1 0.1 2.9 2.3 5.1 5.1 5.1z" fill="#340606" p-id="6405"></path><path d="M297.532 317.767c102.77-104.402 266.7-130.539 399.376-53.939 157.616 91 211.642 292.626 120.642 450.242S524.924 925.712 367.308 834.712c-132.762-76.65-192.006-231.636-153.113-372.802l300.282 77.297-216.945-221.44z" fill="#0DD20B" p-id="6406"></path><path d="M507.077 220.625c63.963-4.987 130.075 8.703 189.83 43.203 157.617 91 211.643 292.626 120.643 450.242C752 827.606 629.012 887.427 506.47 877.876c104.734-8.005 203.911-65.984 260.411-163.845 91-157.617 36.975-359.242-120.642-450.242-44.13-25.364-91.623-39.504-139.162-43.164z" fill="#0F890E" p-id="6407"></path><path d="M315.263 335.856c94.908-96.586 246.315-120.83 368.945-50.03 145.492 84 195.345 270.052 111.345 415.544-84 145.493-270.053 195.345-415.545 111.345-122.63-70.8-177.287-214.131-141.145-344.53l275.75 70.985-199.35-203.314z" fill="#FF5C5C" p-id="6408"></path><path d="M607.42 254.425c26.254 6.728 52.106 17.15 76.788 31.4 145.492 84 195.395 269.966 111.445 415.372-42.8 74.132-112.158 123.462-189.121 142.767 62.01-26.206 116.195-72.056 152.395-134.756 88.45-153.2 35.875-349.138-117.411-437.638-11.172-6.45-22.52-12.194-34.096-17.145z" fill="#A71818" p-id="6409"></path><path d="M263.077 300.645c-19.745 19.2-37.296 41.399-51.746 66.427-13.35 23.123-23.356 47.253-30.077 71.894l290.755 74.798-208.932-213.119z" fill="#0DD20B" p-id="6410"></path><path d="M276.288 314.162c-17.606 17.895-33.213 38.328-46.363 61.105-12.8 22.17-22.43 45.247-29.22 68.809l271.304 69.688-195.72-199.602z" fill="#FF5C5C" p-id="6411"></path><path d="M474.1 879.9c-2.8 0-5.1-2.3-5.1-5.1s2.3-5.1 5.1-5.1c85.5 0 165.8-33.2 226-91.6 2-2 5.2-1.9 7.2 0.1s1.9 5.2-0.1 7.2c-62.1 60.2-144.9 94.5-233.1 94.5z m236.7-98.1c-2 2-5.2 2-7.2 0s-2-5.2 0-7.2c1.2-1.2 2.3-2.4 3.5-3.6 1.9-2 5.2-2.1 7.2-0.1 2 1.9 2.1 5.2 0.1 7.2-1.2 1.3-2.4 2.5-3.6 3.7z m36.6-43.4c-1.6 2.3-4.8 2.8-7.1 1.2-2.3-1.6-2.8-4.8-1.2-7.1 38.5-54.3 59.5-119.2 59.5-187.3 0-16.9-1.3-33.6-3.8-50.1-0.4-2.8 1.5-5.4 4.2-5.8 2.8-0.4 5.4 1.5 5.8 4.2 2.6 17 4 34.2 4 51.6-0.1 70.4-21.8 137.3-61.4 193.3z m56.5-249.8c0.5 2.8-1.4 5.4-4.1 5.9-2.8 0.5-5.4-1.4-5.9-4.1-0.3-1.6-0.6-3.3-0.9-4.9-0.5-2.8 1.3-5.4 4.1-5.9s5.4 1.3 5.9 4.1c0.3 1.5 0.6 3.2 0.9 4.9z m-14.2-54.8c0.9 2.6-0.5 5.5-3.1 6.5s-5.5-0.5-6.5-3.1c-28.1-79.4-86.4-145.1-161.7-182.6-2.5-1.2-3.5-4.3-2.3-6.8 1.2-2.5 4.3-3.5 6.8-2.3 77.7 38.6 137.8 106.3 166.8 188.3zM618.5 243.3c2.5 1.2 3.6 4.2 2.4 6.8-1.2 2.5-4.2 3.6-6.8 2.4l-4.5-2.1c-2.5-1.2-3.7-4.2-2.5-6.7 1.2-2.5 4.2-3.7 6.7-2.5 1.6 0.6 3.2 1.4 4.7 2.1z m-53.1-20c2.7 0.8 4.3 3.6 3.5 6.3-0.8 2.7-3.6 4.3-6.3 3.5-28.5-8.1-58.1-12.2-88.3-12.2-54.8 0-107.4 13.4-154.3 38.8-2.5 1.3-5.5 0.4-6.9-2.1s-0.4-5.5 2.1-6.9c48.4-26.2 102.7-40 159.1-40 31.2 0 61.8 4.2 91.1 12.6z m-254.6 29.8c2.4-1.4 5.5-0.5 6.9 1.9s0.5 5.5-1.9 6.9c-1.4 0.8-2.9 1.6-4.3 2.5-2.4 1.4-5.5 0.6-6.9-1.8-1.4-2.4-0.6-5.5 1.8-6.9 1.5-0.9 2.9-1.8 4.4-2.6z m-46.9 31.8c2.2-1.8 5.4-1.4 7.1 0.8 1.8 2.2 1.4 5.4-0.8 7.1-65.4 52.8-108.2 129-118.3 213.2-0.3 2.8-2.9 4.8-5.6 4.4-2.8-0.3-4.8-2.9-4.4-5.6 10.4-86.9 54.6-165.5 122-219.9z m-122.6 225c0.3-2.8 2.8-4.8 5.6-4.5s4.8 2.8 4.5 5.6c-0.2 1.7-0.3 3.3-0.5 5-0.2 2.8-2.7 4.8-5.5 4.6-2.8-0.2-4.8-2.7-4.6-5.5 0.1-1.8 0.3-3.5 0.5-5.2z m-1.2 56.7c-0.2-2.8 1.9-5.2 4.7-5.4 2.8-0.2 5.2 1.9 5.4 4.7 5.3 85 43.7 163.2 105.8 219.7 2.1 1.9 2.2 5.1 0.3 7.2-1.9 2.1-5.1 2.2-7.2 0.3-64-58.2-103.5-138.9-109-226.5z m113.1 230c-2.1-1.8-2.3-5.1-0.5-7.2s5.1-2.3 7.2-0.5c1.3 1.1 2.5 2.2 3.8 3.3 2.1 1.8 2.4 5 0.6 7.1-1.8 2.1-5 2.4-7.1 0.6-1.4-1-2.7-2.1-4-3.3z m45.2 33.5c-2.4-1.5-3.1-4.6-1.6-7 1.5-2.4 4.6-3.1 7-1.6 50.7 31.3 109 48.2 169.9 48.3 2.8 0 5.1 2.3 5.1 5.1s-2.3 5.1-5.1 5.1c-62.9-0.2-123.1-17.6-175.3-49.9zM280.1 419.2c-8.9 0-15.2-17.9-15.2-28.9 0-8.4 6.8-15.2 15.2-15.2 8.4 0 15.2 6.8 15.2 15.2 0 11-6.2 28.9-15.2 28.9z m2.4-16.5c1.6-4.4 2.7-9.9 2.7-12.3 0-2.8-2.3-5.1-5.1-5.1s-5.1 2.3-5.1 5.1c0 2.4 1.1 7.9 2.7 12.3 0.8 2.2 1.6 4 2.4 5.3 0.8-1.3 1.6-3.1 2.4-5.3zM357.4 457.2c4.5-7.7 23.1-4.2 32.6 1.3 7.3 4.2 9.8 13.5 5.6 20.8-4.2 7.3-13.5 9.8-20.8 5.6-9.5-5.6-21.9-20-17.4-27.7z m13.1 10.3c3.1 3.6 7.3 7.3 9.3 8.5 2.4 1.4 5.5 0.6 6.9-1.9 1.4-2.4 0.6-5.5-1.9-6.9-2.1-1.2-7.4-3-12-3.8-2.3-0.4-4.3-0.6-5.8-0.6 0.8 1.3 2 2.9 3.5 4.7zM559.1 416.5c-8.6-2.3-10-21.3-7.2-31.8 2.2-8.1 10.5-12.9 18.6-10.8 8.1 2.2 12.9 10.5 10.8 18.6-2.9 10.6-13.6 26.3-22.2 24z m6.6-15.4c2.7-3.9 5.2-8.9 5.8-11.2 0.7-2.7-0.9-5.5-3.6-6.2-2.7-0.7-5.5 0.9-6.2 3.6-0.6 2.3-0.9 7.9-0.6 12.6 0.2 2.3 0.5 4.3 0.9 5.7 1.1-1 2.4-2.5 3.7-4.5zM658.9 488.2c0-8.9 17.9-15.2 28.9-15.2 8.4 0 15.2 6.8 15.2 15.2 0 8.4-6.8 15.2-15.2 15.2-11 0-28.9-6.2-28.9-15.2z m16.5 2.4c4.4 1.6 9.9 2.7 12.3 2.7 2.8 0 5.1-2.3 5.1-5.1s-2.3-5.1-5.1-5.1c-2.4 0-7.9 1.1-12.3 2.7-2.2 0.8-4 1.6-5.3 2.4 1.3 0.8 3.1 1.6 5.3 2.4z" fill="#032203" p-id="6412"></path><path d="M469 636.5m-15.2 0a15.2 15.2 0 1 0 30.4 0 15.2 15.2 0 1 0-30.4 0Z" fill="#032203" p-id="6413"></path><path d="M555.2 636.5m-15.2 0a15.2 15.2 0 1 0 30.4 0 15.2 15.2 0 1 0-30.4 0Z" fill="#032203" p-id="6414"></path><path d="M489.3 687.2c0 14 11.4 25.4 25.4 25.4 14 0 25.4-11.4 25.4-25.4 0-2.8-2.3-5.1-5.1-5.1s-5.1 2.3-5.1 5.1c0 8.4-6.8 15.2-15.2 15.2s-15.2-6.8-15.2-15.2c0-2.8-2.3-5.1-5.1-5.1s-5.1 2.3-5.1 5.1z" fill="#032203" p-id="6415"></path><path d="M395.5 697.4c-7 0-12.7-5.7-12.7-12.7s5.7-12.7 12.7-12.7c7 0 12.7 5.7 12.7 12.7s-5.7 12.7-12.7 12.7z m233.2 0c-7 0-12.7-5.7-12.7-12.7s5.7-12.7 12.7-12.7c7 0 12.7 5.7 12.7 12.7s-5.7 12.7-12.7 12.7z" fill="#A71818" p-id="6416"></path><path d="M519.7 165c2.8 0 5.1 2.3 5.1 5.1v223.1c0 2.8-2.3 5.1-5.1 5.1s-5.1-2.3-5.1-5.1V170.1c0-2.8 2.3-5.1 5.1-5.1z m267.1 110.6c2 2 2 5.2 0 7.2L629 440.5c-2 2-5.2 2-7.2 0s-2-5.2 0-7.2l157.7-157.7c2.1-2 5.3-2 7.3 0z m110.6 267.1c0 2.8-2.3 5.1-5.1 5.1h-223c-2.8 0-5.1-2.3-5.1-5.1s2.3-5.1 5.1-5.1h223.1c2.8 0.1 5 2.3 5 5.1z" fill="#032203" p-id="6417"></path></svg>